<?xml version="1.0" standalone="no"?>
<!DOCTYPE svg PUBLIC "-//W3C//DTD SVG 20010904//EN"
 "http://www.w3.org/TR/2001/REC-SVG-20010904/DTD/svg10.dtd">
<svg version="1.0" xmlns="http://www.w3.org/2000/svg"
 width="72.000000pt" height="36.000000pt" viewBox="0 0 36.000000 36.000000"
 preserveAspectRatio="xMidYMid meet">
<metadata>
Created by potrace 1.16, written by Peter Selinger 2001-2019
</metadata>
<g transform="translate(0.000000,36.000000) scale(0.005217,-0.011803)"
fill="#000000" stroke="none">
<path d="M3720 2654 c-196 -14 -469 -60 -645 -109 -94 -26 -287 -93 -271 -94
5 -1 66 15 135 34 202 55 369 93 523 117 126 20 180 23 465 23 177 0 324 -3
328 -6 3 -4 -17 -44 -44 -90 -28 -46 -49 -84 -48 -85 1 -2 50 4 107 11 121 17
499 19 635 5 49 -5 90 -8 92 -6 5 4 -499 144 -562 156 -189 34 -542 56 -715
44z"/>
<path d="M4295 2409 c-55 -5 -208 -25 -340 -44 -132 -19 -294 -39 -360 -45
-155 -13 -496 -12 -1020 3 -490 15 -639 9 -820 -27 -303 -62 -632 -211 -839
-379 l-28 -23 73 -136 c40 -75 75 -136 76 -134 2 1 -18 58 -42 127 l-46 124
33 28 c153 131 421 256 669 310 225 50 279 52 1030 32 756 -20 885 -17 1229
30 310 42 409 48 748 42 417 -7 629 -36 1076 -148 131 -33 240 -58 243 -56 14
14 -376 154 -562 202 -338 86 -778 123 -1120 94z"/>
<path d="M3780 1969 c-232 -184 -322 -243 -443 -289 -161 -63 -215 -70 -548
-80 -306 -9 -500 -24 -529 -40 -9 -6 419 -9 1050 -8 1040 1 1185 8 493 23
-189 4 -343 10 -343 14 0 3 123 129 272 278 150 150 271 273 268 272 -3 0
-102 -77 -220 -170z"/>
<path d="M2034 2003 c40 -61 57 -122 58 -205 0 -65 -4 -86 -30 -141 -81 -173
-270 -247 -446 -173 -59 24 -140 109 -171 177 -24 55 -27 70 -23 152 2 74 8
102 29 145 14 28 20 47 14 42 -7 -6 -25 -38 -40 -73 -79 -174 7 -391 186 -471
74 -34 197 -38 269 -10 140 54 240 198 240 345 0 54 -32 149 -69 202 -38 56
-52 63 -17 10z"/>
<path d="M5323 1993 c109 -162 50 -404 -120 -495 -178 -96 -384 -25 -472 161
-22 48 -26 70 -26 147 0 83 3 97 32 155 18 35 26 55 17 44 -9 -11 -28 -45 -43
-75 -22 -47 -26 -68 -26 -145 0 -82 3 -97 33 -157 63 -129 177 -200 322 -200
144 0 259 71 322 200 30 61 33 74 33 162 0 83 -4 102 -27 151 -15 30 -39 66
-54 80 -22 20 -20 16 9 -28z"/>
<path d="M5905 1620 c-16 -33 -35 -60 -43 -60 -12 0 -12 -4 3 -20 27 -29 38
-25 65 25 l25 45 126 0 127 0 -102 -187 -101 -188 -2205 -5 -2205 -5 1965 -18
c1081 -9 2078 -20 2215 -23 l250 -6 138 244 c75 135 137 248 137 251 0 4 -82
7 -183 7 l-183 0 -29 -60z"/>
<path d="M3085 1375 c1034 -12 2088 -25 2343 -29 l462 -6 0 30 0 30 -2342 -1
-2343 -2 1880 -22z"/>
<path d="M1460 750 l0 -300 115 0 c113 0 115 1 147 29 l33 29 0 242 0 242 -33
29 c-32 28 -34 29 -147 29 l-115 0 0 -300z m194 184 c8 -20 8 -348 0 -368 -4
-11 -19 -16 -50 -16 l-44 0 0 200 0 200 44 0 c31 0 46 -5 50 -16z"/>
<path d="M1850 750 l0 -300 145 0 145 0 0 50 0 50 -100 0 -100 0 0 75 0 75 80
0 80 0 0 50 0 49 -77 3 -78 3 -3 73 -3 72 101 0 100 0 0 50 0 50 -145 0 -145
0 0 -300z"/>
<path d="M2240 750 l0 -300 145 0 145 0 0 50 0 50 -100 0 -100 0 0 75 0 75 80
0 80 0 0 50 0 49 -77 3 -78 3 -3 73 -3 72 101 0 100 0 0 50 0 50 -145 0 -145
0 0 -300z"/>
<path d="M2630 1018 c0 -34 46 -477 56 -535 5 -32 6 -33 54 -33 57 0 49 -17
96 195 15 66 30 126 34 133 3 7 21 -54 40 -135 46 -205 40 -195 97 -191 l48 3
32 270 c42 359 44 325 -17 325 -33 0 -50 -4 -50 -12 0 -27 -30 -342 -33 -345
-2 -1 -13 48 -26 110 -13 62 -30 143 -38 180 l-15 68 -36 -3 -36 -3 -38 -175
c-20 -96 -38 -177 -39 -180 -1 -3 -9 76 -18 175 l-16 180 -47 3 -48 3 0 -33z"/>
<path d="M3330 1043 c0 -5 -27 -132 -60 -283 -33 -151 -60 -283 -60 -293 0
-15 7 -18 47 -15 51 3 46 -3 67 91 6 26 9 27 71 27 62 0 65 -1 71 -27 21 -94
16 -88 67 -91 41 -3 47 -1 47 16 0 11 -27 144 -60 296 -33 152 -60 279 -60
281 0 3 -29 5 -65 5 -36 0 -65 -3 -65 -7z"/>
<path d="M3670 751 l0 -301 50 0 50 0 0 168 1 167 61 -168 61 -168 46 3 46 3
3 298 2 297 -50 0 -50 0 0 -162 c0 -89 -3 -158 -7 -154 -5 4 -33 76 -63 159
l-55 152 -47 3 -48 3 0 -300z"/>
<path d="M4330 1038 c-46 -24 -50 -47 -50 -286 0 -246 5 -269 59 -292 19 -7
61 -11 110 -9 109 5 124 20 129 124 l4 75 -50 0 -51 0 -3 -47 c-3 -48 -3 -48
-42 -51 -24 -2 -42 2 -47 10 -5 7 -9 92 -9 188 0 96 4 181 9 188 5 8 23 12 47
10 38 -3 39 -4 44 -48 l5 -45 48 -3 47 -3 0 70 c0 59 -4 74 -24 98 -23 26 -30
28 -113 31 -58 2 -96 -2 -113 -10z"/>
<path d="M4785 1028 c-14 -61 -116 -545 -118 -558 -2 -12 9 -15 48 -15 l50 0
9 58 9 57 68 0 68 0 12 -60 12 -60 48 0 c33 0 49 4 49 13 0 18 -120 569 -126
579 -3 4 -32 8 -64 8 -54 0 -60 -2 -65 -22z"/>
<path d="M5130 749 l0 -300 48 3 47 3 3 98 c3 95 3 97 27 97 20 0 26 -7 35
-42 7 -24 19 -69 27 -100 l16 -58 49 0 c26 0 48 3 48 8 0 4 -11 49 -25 101
l-24 95 25 29 c23 27 24 35 24 169 l0 140 -29 29 c-29 29 -30 29 -150 29
l-121 0 0 -301z m195 101 l0 -95 -47 -3 -48 -3 0 101 0 101 48 -3 47 -3 0 -95z"/>
<path d="M5561 1024 l-31 -26 0 -129 0 -128 93 -29 92 -29 0 -64 0 -64 -40 0
-40 0 -5 45 -5 45 -47 3 -48 3 0 -70 c0 -59 4 -74 24 -98 23 -26 30 -28 114
-31 87 -4 90 -3 122 26 33 29 33 29 38 138 3 81 0 113 -10 126 -7 10 -51 31
-98 46 l-85 29 0 64 0 64 40 0 40 0 5 -45 5 -45 50 0 50 0 -1 63 c-2 110 -28
132 -154 132 -70 0 -82 -3 -109 -26z"/>
</g>
</svg>
